<svg id="graphic" xmlns="http://www.w3.org/2000/svg" xmlns:xlink="http://www.w3.org/1999/xlink" viewBox="0 0 1306.05 597.3"><defs><style>.cls-1{fill:none;}.cls-2{clip-path:url(#clip-path);}.cls-3{fill:#edd8c4;}.cls-10,.cls-11,.cls-3,.cls-4,.cls-5,.cls-6,.cls-7,.cls-8,.cls-9{opacity:0.9;isolation:isolate;}.cls-4{fill:#c4a999;}.cls-5{fill:#f9c1c0;}.cls-6{fill:#b76a4c;}.cls-7{fill:#dc6130;}.cls-8{fill:#783027;}.cls-9{fill:#8a1d2e;}.cls-10{fill:#602a1f;}.cls-11{fill:#893838;}</style><clipPath id="clip-path" transform="translate(-47.93 -7.2)"><rect class="cls-1" x="29.29" y="7.2" width="1343.34" height="507.27"/></clipPath></defs><title>example04-edited</title><g id="data-points"><g class="cls-2"><path id="point-0-0" class="cls-3" d="M1354,7.2H1242.11V551.63H1354Z" transform="translate(-47.93 -7.2)"/><path id="point-0-1" class="cls-4" d="M1204.82,7.2H1092.94v319h111.88Z" transform="translate(-47.93 -7.2)"/><path id="point-0-2" class="cls-5" d="M1055.65,7.2H943.77V138.53h111.88Z" transform="translate(-47.93 -7.2)"/><path id="point-0-3" class="cls-6" d="M906.48,7.2H794.6V262.53H906.48Z" transform="translate(-47.93 -7.2)"/><path id="point-0-4" class="cls-7" d="M756.9,7.2H645V476.71H756.9Z" transform="translate(-47.93 -7.2)"/><path id="point-0-5" class="cls-8" d="M607.73,7.2H495.85V219.69H607.73Z" transform="translate(-47.93 -7.2)"/><path id="point-0-6" class="cls-9" d="M458.56,7.2H346.68V333H458.56Z" transform="translate(-47.93 -7.2)"/><path id="point-0-7" class="cls-10" d="M309.39,7.2H197.51V376.38H309.39Z" transform="translate(-47.93 -7.2)"/><path id="point-0-8" class="cls-11" d="M159.81,7.2H47.93V604.5H159.81Z" transform="translate(-47.93 -7.2)"/></g></g></svg>